<?xml version="1.0" encoding="UTF-8" standalone="no"?>
<svg
   version="1.0"
   width="188.00346pt"
   height="188pt"
   viewBox="0 0 188.00346 188"
   preserveAspectRatio="xMidYMid meet"
   id="svg36"
   sodipodi:docname="1f5928cafa528291e1802b884cad29d7.svg"
   xmlns:inkscape="http://www.inkscape.org/namespaces/inkscape"
   xmlns:sodipodi="http://sodipodi.sourceforge.net/DTD/sodipodi-0.dtd"
   xmlns="http://www.w3.org/2000/svg"
   xmlns:svg="http://www.w3.org/2000/svg">
  <defs
     id="defs40" />
  <sodipodi:namedview
     id="namedview38"
     pagecolor="#ffffff"
     bordercolor="#666666"
     borderopacity="1.0"
     inkscape:pageshadow="2"
     inkscape:pageopacity="0.0"
     inkscape:pagecheckerboard="0"
     inkscape:document-units="pt" />
  <metadata
     id="metadata2">
Created by potrace 1.16, written by Peter Selinger 2001-2019
</metadata>
  <g
     transform="matrix(0.1,0,0,-0.1,-6,194)"
     fill="#000000"
     stroke="none"
     id="g34">
    <path
       d="m 550,1927 c -19,-7 -44,-27 -57,-46 -22,-33 -23,-41 -23,-272 v -239 h 29 30 l 3,233 c 2,180 6,238 17,250 12,15 57,17 452,17 h 439 v -114 c 0,-100 2,-116 21,-140 36,-46 69,-56 184,-56 h 105 V 956 351 l -26,-20 c -26,-20 -38,-21 -315,-21 h -289 v -30 -30 h 300 c 328,0 339,2 376,57 18,27 19,58 22,661 l 3,633 -73,76 -73,75 81,-3 c 49,-3 87,-9 97,-18 16,-12 17,-78 17,-761 0,-711 -1,-748 -18,-763 -17,-15 -57,-17 -376,-17 h -358 l 6,-22 c 3,-13 6,-29 6,-35 0,-10 76,-13 347,-13 329,0 349,1 389,20 78,38 74,-5 74,824 0,788 1,776 -50,821 -19,17 -39,20 -155,23 l -133,4 -61,64 -62,64 -447,-1 c -319,0 -457,-4 -482,-12 z m 1053,-204 c 53,-53 97,-97 97,-97 0,-1 -37,0 -82,1 -107,4 -118,14 -118,119 0,41 1,74 3,74 2,0 47,-43 100,-97 z"
       id="path4" />
    <path
       d="m 680,1647 c -31,-15 -60,-71 -60,-115 0,-87 67,-148 132,-121 44,18 59,49 59,119 1,68 -17,105 -57,120 -33,13 -44,12 -74,-3 z"
       id="path6" />
    <path
       d="m 874,1647 c -2,-7 -3,-65 -2,-128 l 3,-114 33,-3 32,-3 v 130 131 h -30 c -17,0 -33,-6 -36,-13 z"
       id="path8" />
    <path
       d="m 1055,1646 c -38,-16 -55,-53 -55,-116 0,-64 15,-95 56,-115 42,-20 77,-11 109,27 20,23 25,41 25,83 0,69 -15,100 -55,120 -39,18 -41,18 -80,1 z"
       id="path10" />
    <path
       d="m 1301,1646 c -35,-19 -50,-54 -51,-114 0,-66 23,-108 66,-122 68,-23 124,30 124,116 0,65 -13,96 -50,117 -34,20 -57,21 -89,3 z"
       id="path12" />
    <path
       d="m 1009,1327 c -28,-21 -39,-54 -39,-115 0,-45 5,-66 20,-85 28,-35 79,-44 118,-21 39,23 52,52 52,120 0,48 -4,60 -29,85 -23,22 -39,29 -68,29 -21,0 -45,-6 -54,-13 z"
       id="path14" />
    <path
       d="m 1387,1329 c -45,-26 -61,-121 -31,-184 29,-61 112,-71 154,-18 16,20 20,41 20,95 0,62 -3,72 -26,93 -29,27 -84,33 -117,14 z"
       id="path16" />
    <path
       d="m 1590,1215 v -125 h 35 35 v 125 125 h -35 -35 z"
       id="path18" />
    <path
       d="m 467,1300 c -31,-8 -93,-34 -105,-45 -2,-2 4,-15 13,-28 l 16,-26 47,21 c 72,32 181,31 253,-3 71,-33 125,-87 157,-157 21,-46 25,-74 30,-183 l 5,-129 h -52 -51 v 118 c 0,92 -4,126 -19,157 -43,94 -146,148 -239,125 -107,-26 -168,-99 -179,-214 l -6,-67 -41,3 -41,3 1,65 c 1,80 16,128 59,184 l 33,44 -23,22 -22,21 -32,-40 c -57,-71 -75,-125 -79,-240 -3,-80 -1,-105 9,-112 22,-13 183,-11 197,3 7,7 12,42 12,89 0,62 4,82 23,110 45,68 143,90 207,47 66,-45 75,-67 78,-199 l 4,-119 H 430 C 108,750 91,747 71,689 65,671 60,642 60,624 c 0,-27 4,-34 20,-34 16,0 20,-7 20,-30 0,-23 -4,-30 -20,-30 C 61,530 60,523 60,341 60,238 65,140 70,123 92,60 94,60 558,60 c 243,0 431,4 446,10 14,5 33,21 43,37 16,25 18,52 15,308 l -2,280 -30,28 c -19,17 -42,27 -60,27 h -30 v 120 c 0,96 -4,133 -21,182 -36,106 -107,186 -207,230 -53,24 -182,33 -245,18 z"
       id="path20" />
    <path
       d="M 1030,905 V 780 h 35 35 v 125 125 h -35 -35 z"
       id="path22" />
    <path
       d="m 1205,1018 c -36,-21 -44,-42 -45,-115 0,-67 2,-73 31,-97 92,-78 193,33 148,162 -19,54 -84,78 -134,50 z"
       id="path24" />
    <path
       d="m 1455,1018 c -36,-21 -44,-42 -45,-115 0,-67 2,-73 31,-97 91,-77 193,34 148,162 -19,54 -84,78 -134,50 z"
       id="path26" />
    <path
       d="m 1158,568 c -2,-68 -2,-126 -1,-129 1,-3 16,-4 33,-1 l 30,4 v 124 124 h -29 -30 z"
       id="path28" />
    <path
       d="m 1335,676 c -39,-17 -55,-53 -55,-121 0,-43 5,-59 26,-84 21,-26 33,-31 69,-31 36,0 48,5 69,31 22,26 26,40 26,92 0,66 -14,94 -57,116 -27,14 -41,13 -78,-3 z"
       id="path30" />
    <path
       d="m 1530,566 c 0,-132 4,-141 49,-129 20,5 21,12 21,129 v 124 h -35 -35 z"
       id="path32" />
  </g>
</svg>
